HIERARCHY
ROOT Hips
{
	OFFSET 0.000000 0.000000 0.000000 
	CHANNELS 6 Xposition Yposition Zposition Zrotation Yrotation Xrotation
	JOINT LeftUpLeg
	{
		OFFSET 1.363060 -1.794630 0.839290 
		CHANNELS 3 Zrotation Yrotation Xrotation
		JOINT LeftLeg
		{
			OFFSET 2.448110 -6.726130 0.000000 
			CHANNELS 3 Zrotation Yrotation Xrotation
			JOINT LeftFoot
			{
				OFFSET 2.562200 -7.039590 0.000000 
				CHANNELS 3 Zrotation Yrotation Xrotation
				JOINT LeftToeBase
				{
					OFFSET 0.157640 -0.433110 2.322550 
					CHANNELS 3 Zrotation Yrotation Xrotation
					End Site
					{
						OFFSET 0.000000 0.000000 0.000000 
					}
				}
			}
		}
	}
	JOINT RightUpLeg
	{
		OFFSET -1.305520 -1.794630 0.839290 
		CHANNELS 3 Zrotation Yrotation Xrotation
		JOINT RightLeg
		{
			OFFSET -2.542530 -6.985550 0.000000 
			CHANNELS 3 Zrotation Yrotation Xrotation
			JOINT RightFoot
			{
				OFFSET -2.568260 -7.056230 0.000000 
				CHANNELS 3 Zrotation Yrotation Xrotation
				JOINT RightToeBase
				{
					OFFSET -0.164730 -0.452590 2.363150 
					CHANNELS 3 Zrotation Yrotation Xrotation
					End Site
					{
						OFFSET 0.000000 0.000000 0.000000 
					}
				}
			}
		}
	}
	JOINT Spine
	{
		OFFSET 0.028270 2.035590 -0.193380 
		CHANNELS 3 Zrotation Yrotation Xrotation
		JOINT Spine1
		{
			OFFSET 0.056720 2.048850 -0.042750 
			CHANNELS 3 Zrotation Yrotation Xrotation
			JOINT Neck1
			{
				OFFSET -0.054170 1.746240 0.172020 
				CHANNELS 3 Zrotation Yrotation Xrotation
				JOINT Head
				{
					OFFSET 0.104070 1.761360 -0.123970 
					CHANNELS 3 Zrotation Yrotation Xrotation
					End Site
					{
						OFFSET 0.000000 0.000000 0.000000 
					}
				}
			}
			JOINT LeftArm
			{
				OFFSET 3.362410 1.200890 -0.311210 
				CHANNELS 3 Zrotation Yrotation Xrotation
				JOINT LeftForeArm
				{
					OFFSET 4.983000 -0.000000 -0.000000 
					CHANNELS 3 Zrotation Yrotation Xrotation
					JOINT LeftHand
					{
						OFFSET 3.483560 -0.000000 -0.000000 
						CHANNELS 3 Zrotation Yrotation Xrotation
						JOINT LeftHandIndex1
						{
							OFFSET 0.715260 -0.000000 -0.000000 
							CHANNELS 3 Zrotation Yrotation Xrotation
							End Site
							{
								OFFSET 0.000000 0.000000 0.000000 
							}
						}
					}
				}
			}
			JOINT RightArm
			{
				OFFSET -3.136600 1.374050 -0.404650 
				CHANNELS 3 Zrotation Yrotation Xrotation
				JOINT RightForeArm
				{
					OFFSET -5.241900 -0.000000 -0.000000 
					CHANNELS 3 Zrotation Yrotation Xrotation
					JOINT RightHand
					{
						OFFSET -3.444170 -0.000000 -0.000000 
						CHANNELS 3 Zrotation Yrotation Xrotation
						JOINT RightHandIndex1
						{
							OFFSET -0.622530 -0.000000 -0.000000 
							CHANNELS 3 Zrotation Yrotation Xrotation
							End Site
							{
								OFFSET 0.000000 0.000000 0.000000 
							}
						}
					}
				}
			}
		}
	}
}
MOTION
Frames: 10
Frame Time: 0.041667
-0.143835 17.795395 40.800985 -178.146352 -18.210932 -170.500601 -13.467186 -12.239508 1.385736 -1.090114 2.661707 8.158051 0.909479 -7.251569 -0.385404 0.180800 2.738500 7.551500 10.460067 2.328908 -27.971150 1.303848 -7.507785 18.419515 -0.678601 -2.472509 11.543826 -0.554400 -4.769800 13.253200 1.514387 0.445090 -3.422991 1.703287 0.199542 9.134055 10.993148 -3.766964 4.886404 4.494200 -1.714300 -2.459800 -96.656429 -3.001056 -2.794295 6.341254 -11.371896 -0.640313 -0.144890 -0.306034 43.950281 -7.125000 0.000000 0.000000 92.475088 -1.420685 -0.432049 -14.998243 26.573829 -3.632392 0.693118 -1.703740 32.633948 7.125000 0.000000 0.000000 
-0.143282 17.791087 40.803305 -178.070916 -17.971202 -170.659120 -13.533752 -11.950660 1.510689 -1.088172 2.634886 8.095867 0.907353 -7.268209 -0.382241 0.186100 2.778600 7.662900 10.509050 2.372415 -27.926528 1.297925 -7.536989 18.486457 -0.677393 -2.502322 11.684046 -0.429600 -4.206200 11.657500 1.305405 0.542441 -3.377959 0.075681 0.311704 9.078853 10.728068 -4.752836 3.919174 4.092000 -2.294000 -2.892000 -95.574766 -2.653088 1.723597 6.944126 -12.380668 -0.779227 -0.109208 -0.329647 39.578786 -7.125000 0.000000 0.000000 94.023864 -0.928627 -1.008001 -14.708212 26.472713 -3.568087 0.686238 -1.791253 33.596378 7.125000 0.000000 0.000000 
-0.145823 17.785784 40.806730 -178.083884 -17.770049 -170.812243 -13.690216 -11.654644 1.815675 -1.102841 2.493340 7.731389 0.890813 -7.201520 -0.292366 0.218600 3.009900 8.306300 10.553662 2.252177 -27.983384 1.274090 -7.608693 18.693194 -0.751699 -2.288420 11.957962 -0.362900 -3.869900 10.710800 1.224652 0.326010 -3.414491 -0.773424 0.248313 8.738017 10.675579 -5.661474 3.362319 4.074500 -2.776700 -3.181400 -95.390828 -2.435895 3.926005 7.325262 -12.970346 -0.869500 -0.084379 -0.345009 37.052303 -7.125000 0.000000 0.000000 94.605482 -0.919315 -0.972505 -14.464098 26.329654 -3.504535 0.670750 -1.835175 34.355980 7.125000 0.000000 0.000000 
-0.148806 17.775621 40.811149 -178.152960 -17.527708 -170.918074 -13.914534 -11.337984 2.071166 -1.112981 2.377771 7.433154 0.882028 -7.185381 -0.317028 0.189600 2.804100 7.734000 10.511142 2.224115 -28.018037 1.257404 -7.658505 18.842835 -0.833374 -2.042389 12.189134 -0.230900 -3.092800 8.537300 1.146557 0.049401 -3.457320 -1.588002 0.145984 8.375857 10.916281 -6.645700 3.082699 4.247300 -3.286000 -3.345900 -95.211567 -4.356660 -1.579897 6.027001 -10.658612 -0.574368 -0.122474 -0.252824 42.732245 -7.125000 0.000000 0.000000 95.229488 -0.896138 -1.049637 -14.146505 26.108096 -3.420486 0.646651 -1.879503 35.267460 7.125000 0.000000 0.000000 
-0.153998 17.764574 40.811480 -178.245921 -17.199104 -170.738246 -14.082646 -11.008549 1.979288 -1.119103 2.311955 7.264329 0.882086 -7.189170 -0.422325 0.111400 2.151800 5.925300 10.439554 2.296628 -28.242146 1.255652 -7.684069 18.903940 -0.915540 -1.813040 12.478894 -0.073900 -1.753400 4.824700 1.194336 -0.204873 -3.488038 -1.350327 0.001579 8.321346 10.961185 -7.228275 2.412813 4.363800 -3.579200 -3.624200 -96.030624 -4.821018 -2.320539 6.117361 -10.809316 -0.594355 -0.118465 -0.245500 43.851665 -7.125000 0.000000 0.000000 94.993875 -0.640569 -1.123515 -13.802052 25.676788 -3.313423 0.606542 -1.861798 35.966277 7.125000 0.000000 0.000000 
-0.160847 17.762254 40.806288 -178.235197 -16.901101 -170.709494 -14.121084 -10.690951 1.954018 -1.118804 2.280020 7.184600 0.881118 -7.197903 -0.422461 0.103100 2.070100 5.699300 10.486092 2.317415 -28.315096 1.262143 -7.684844 18.921748 -1.001136 -1.554600 12.742148 -0.003500 -0.383600 1.054100 1.265152 -0.490287 -3.507086 -1.062523 -0.156009 8.300441 10.963649 -7.649527 1.925565 4.449100 -3.782100 -3.804900 -96.766381 -5.159470 -2.174454 6.215167 -10.987208 -0.617052 -0.114036 -0.240149 43.990179 -7.125000 0.000000 0.000000 94.692494 -0.435909 -1.055827 -13.481998 25.271955 -3.223500 0.575693 -1.851594 36.380119 7.125000 0.000000 0.000000 
-0.166592 17.770760 40.797119 -178.152528 -16.672560 -170.739239 -14.025767 -10.451438 1.904951 -1.113566 2.277377 7.183411 0.886908 -7.284456 -0.336770 0.143700 2.443000 6.731600 10.628606 2.291007 -28.309335 1.275906 -7.662974 18.886674 -1.063945 -1.346689 12.888165 -0.000400 -0.134200 0.368700 1.343453 -0.780109 -3.526472 -0.787083 -0.311197 8.271413 10.986902 -7.998133 1.524277 4.534300 -3.948200 -3.950900 -97.351621 -5.385897 -0.867327 6.324864 -11.179764 -0.639658 -0.112991 -0.240815 43.306281 -7.125000 0.000000 0.000000 94.445950 -0.198340 -1.274926 -13.037514 24.713470 -3.103231 0.553398 -1.840749 36.863629 7.125000 0.000000 0.000000 
-0.170237 17.776063 40.786734 -178.055195 -16.434070 -170.708811 -13.890947 -10.220636 1.758990 -1.104659 2.302603 7.259656 0.900506 -7.416461 -0.315277 0.165300 2.619000 7.219700 10.786021 2.308137 -28.338778 1.296831 -7.627776 18.804513 -1.113793 -1.164926 12.935242 -0.000200 0.090400 -0.248300 1.403848 -1.020365 -3.551678 -0.626153 -0.435216 8.234102 11.057427 -8.255082 1.236022 4.624600 -4.071800 -4.040900 -97.743209 -5.496739 1.476345 6.541783 -11.544141 -0.684431 -0.107314 -0.254559 41.454005 -7.125000 0.000000 0.000000 94.354708 0.094843 -1.973842 -12.439150 23.973359 -2.936206 0.512848 -1.819979 37.821664 7.125000 0.000000 0.000000 
-0.174656 17.776946 40.778118 -178.013381 -16.151199 -170.671518 -13.864948 -9.923515 1.705981 -1.105473 2.270866 7.181862 0.894630 -7.363750 -0.290172 0.159100 2.569700 7.083000 10.859027 2.407187 -28.350439 1.313112 -7.601846 18.739936 -1.151076 -1.038166 13.012983 -0.002900 0.345000 -0.948100 1.438002 -1.201422 -3.576659 -0.600722 -0.526573 8.156670 11.075581 -8.407888 1.105668 4.646900 -4.146800 -4.047500 -97.950037 -5.589417 3.852670 6.789424 -11.955790 -0.738590 -0.097644 -0.270029 39.449343 -7.125000 0.000000 0.000000 94.453619 0.302065 -2.895692 -11.937288 23.346419 -2.795115 0.469530 -1.799422 38.880567 7.125000 0.000000 0.000000 
-0.179849 17.776284 40.770385 -178.050068 -15.884043 -170.679679 -13.948673 -9.602044 1.860816 -1.117594 2.136499 6.827890 0.866925 -7.240969 0.060744 0.236400 3.129100 8.638200 10.848081 2.520646 -28.310779 1.316850 -7.601000 18.745481 -1.185888 -0.943583 13.190733 -0.001700 0.263800 -0.724800 1.478881 -1.362374 -3.577253 -0.454015 -0.619866 8.175542 11.067671 -8.498725 1.084530 4.642500 -4.185900 -3.977500 -98.176120 -5.850057 5.891737 6.957706 -12.251589 -0.778235 -0.091688 -0.275686 38.033106 -7.125000 0.000000 0.000000 94.490061 0.576951 -3.967219 -11.503268 22.757267 -2.674280 0.441850 -1.773323 39.810630 7.125000 0.000000 0.000000 
